<svg width="146" height="100" viewBox="0 0 146 100" fill="none" xmlns="http://www.w3.org/2000/svg">
<path d="M1.17188 74.4062L1.875 72.9062C3.60938 74.3125 5.25 74.875 7.54688 74.875C10.3125 74.875 11.9062 73.75 11.8594 71.8281C11.8125 70 10.3594 69.5781 7.54688 68.9219C6.23438 68.5938 5.15625 68.3125 4.3125 67.9844C2.625 67.2812 1.45312 66.0625 1.45312 64.0469C1.45312 61.0938 3.9375 59.0781 7.6875 59.0781C10.0781 59.0781 12.1875 59.8281 13.5938 61.2344L12.7969 62.7812C11.2031 61.4219 9.60938 60.7656 7.6875 60.7656C5.01562 60.7656 3.42188 61.9844 3.42188 63.9531C3.42188 65.6875 4.73438 66.3906 7.45312 67.0469C8.90625 67.375 10.0312 67.75 10.875 68.0312C12.6094 68.5938 13.8281 69.7656 13.8281 71.7344C13.8281 74.6406 11.3906 76.5625 7.54688 76.5625C4.875 76.5625 2.71875 75.8594 1.17188 74.4062ZM34.2656 68.7812V76.375H32.3438V68.875C32.3438 66.625 31.5938 65.6406 29.8125 65.6406C27.7969 65.6406 26.5781 67.0938 26.5781 69.4844V76.375H24.6094V68.875C24.6094 66.6719 23.8594 65.6406 22.125 65.6406C20.0625 65.6406 18.7969 67.0938 18.7969 69.4844V76.375H16.875V67.7031C16.875 66.4375 16.7812 65.3125 16.6875 64.2812H18.5156L18.7031 66.4375C19.4062 64.8906 20.7656 64 22.5469 64C24.4688 64 25.6406 64.75 26.25 66.3438C26.9531 64.9375 28.4531 64 30.2812 64C32.9062 64 34.2656 65.5938 34.2656 68.7812ZM46.5469 66.3906V64.2812H48.4688V76.375H46.5469V74.1719C45.8438 75.7188 44.3438 76.5625 42.4688 76.5625C39.2344 76.5625 37.125 74.0781 37.125 70.3281C37.125 66.5781 39.2812 64 42.4688 64C44.3438 64 45.7969 64.8906 46.5469 66.3906ZM46.5469 70.2812C46.5469 67.2812 45.2344 65.6406 42.8438 65.6406C40.4531 65.6406 39.0938 67.375 39.0938 70.3281C39.0938 73.2812 40.4531 74.9219 42.8438 74.9219C45.2344 74.9219 46.5469 73.2344 46.5469 70.2812ZM58.2188 64.1406L58.1719 65.9219C57.8438 65.8281 57.375 65.7344 56.9062 65.7344C55.7344 65.7344 54.8906 66.1094 54.2812 66.8594C53.7656 67.5625 53.4375 68.4531 53.4375 69.4844V76.375H51.5156V67.7031C51.5156 66.4375 51.4219 65.3125 51.3281 64.2812H53.1562L53.3438 66.5312C53.9531 64.8906 55.4062 64 57.1406 64C57.5156 64 57.8906 64.0469 58.2188 64.1406ZM67.8281 64.2812V65.8281H64.3594V72.4375C64.3594 74.2188 65.1562 74.875 66.4688 74.875C66.9375 74.875 67.3594 74.7812 67.7812 74.6406V76.2812C67.2656 76.4688 66.7031 76.5625 66.0938 76.5625C63.7969 76.5625 62.4375 75.2031 62.4375 72.7188V65.8281H60.0938V64.2812H62.4375V61.1875L64.3594 60.5312V64.2812H67.8281Z" fill="white"/>
<path d="M69.5156 67.8438C69.5156 62.4531 72.4688 59.0781 77.2969 59.0781C82.125 59.0781 85.0781 62.4531 85.0781 67.7969C85.0781 73.1875 82.0312 76.5625 77.2969 76.5625C72.5156 76.5625 69.5156 73.1875 69.5156 67.8438ZM83.0156 67.7969C83.0156 63.2969 80.9062 60.7656 77.2969 60.7656C73.6406 60.7656 71.5312 63.2969 71.5312 67.7969C71.5312 72.2969 73.6406 74.875 77.2969 74.875C80.9062 74.875 83.0156 72.2969 83.0156 67.7969ZM95.1562 64.1406L95.1094 65.9219C94.7812 65.8281 94.3125 65.7344 93.8438 65.7344C92.6719 65.7344 91.8281 66.1094 91.2188 66.8594C90.7031 67.5625 90.375 68.4531 90.375 69.4844V76.375H88.4531V67.7031C88.4531 66.4375 88.3594 65.3125 88.2656 64.2812H90.0938L90.2812 66.5312C90.8906 64.8906 92.3438 64 94.0781 64C94.4531 64 94.8281 64.0469 95.1562 64.1406ZM107.391 66.3438V58.7031H109.359V76.375H107.438V74.1719C106.734 75.7188 105.234 76.5625 103.359 76.5625C100.172 76.5625 98.0156 73.9844 98.0156 70.2344C98.0156 66.4844 100.125 64 103.359 64C105.234 64 106.688 64.8906 107.391 66.3438ZM107.438 70.2812C107.438 67.3281 106.125 65.6406 103.734 65.6406C101.344 65.6406 99.9844 67.3281 99.9844 70.2344C99.9844 73.1875 101.344 74.9219 103.734 74.9219C106.125 74.9219 107.438 73.2344 107.438 70.2812ZM122.484 69.9062V70.2812H113.672C113.672 73.3281 115.078 74.9219 117.75 74.9219C119.156 74.9219 120.469 74.4531 121.641 73.5156L122.297 74.9219C121.219 75.9062 119.438 76.5625 117.75 76.5625C113.953 76.5625 111.703 74.1719 111.703 70.2812C111.703 66.5781 114.047 64 117.375 64C120.562 64 122.484 66.25 122.484 69.9062ZM113.719 69.0156H120.75C120.562 66.7188 119.391 65.5469 117.375 65.5469C115.359 65.5469 114.094 66.8125 113.719 69.0156ZM132.234 64.1406L132.188 65.9219C131.859 65.8281 131.391 65.7344 130.922 65.7344C129.75 65.7344 128.906 66.1094 128.297 66.8594C127.781 67.5625 127.453 68.4531 127.453 69.4844V76.375H125.531V67.7031C125.531 66.4375 125.438 65.3125 125.344 64.2812H127.172L127.359 66.5312C127.969 64.8906 129.422 64 131.156 64C131.531 64 131.906 64.0469 132.234 64.1406ZM135.047 74.9688L135.703 73.5625C137.016 74.5938 138.281 74.9688 139.969 74.9688C141.75 74.9688 142.734 74.3125 142.734 73.1406C142.734 72.2031 142.125 71.6875 140.672 71.3125L138.609 70.8438C136.594 70.375 135.469 69.2031 135.469 67.6094C135.469 65.5 137.297 64 140.109 64C141.797 64 143.344 64.5625 144.375 65.5938L143.719 67C142.594 66.0625 141.375 65.5938 140.109 65.5938C138.375 65.5938 137.391 66.2969 137.391 67.4688C137.391 68.4531 137.953 69.0156 139.266 69.2969L141.281 69.8125C143.531 70.375 144.609 71.4062 144.609 73.0938C144.609 75.2031 142.781 76.5625 139.875 76.5625C137.812 76.5625 136.219 76 135.047 74.9688Z" fill="#FFAB00"/>
<path d="M89.25 47.25C97.9485 38.5515 97.9485 24.4485 89.25 15.75C80.5515 7.05151 66.4485 7.05151 57.75 15.75C49.0515 24.4485 49.0515 38.5515 57.75 47.25C66.4485 55.9485 80.5515 55.9485 89.25 47.25Z" fill="white" stroke="#BC9434" stroke-width="0.376003" stroke-linejoin="round"/>
<path d="M88.0156 46.0156C96.0323 37.9988 96.0323 25.0012 88.0156 16.9844C79.9988 8.9677 67.0012 8.9677 58.9844 16.9844C50.9677 25.0012 50.9677 37.9988 58.9844 46.0156C67.0012 54.0323 79.9988 54.0323 88.0156 46.0156Z" fill="white" stroke="#BC9434" stroke-width="0.376003" stroke-linejoin="round"/>
<path d="M73.501 10.972V13.7551" stroke="#BC9434" stroke-width="0.376003" stroke-linejoin="round"/>
<path d="M73.501 49.2246V52.0076" stroke="#BC9434" stroke-width="0.376003" stroke-linejoin="round"/>
<path d="M94.018 31.4904H91.235" stroke="#BC9434" stroke-width="0.376003" stroke-linejoin="round"/>
<path d="M55.7655 31.4904H52.9825" stroke="#BC9434" stroke-width="0.376003" stroke-linejoin="round"/>
<path d="M88.009 16.9824L86.0404 18.9497" stroke="#BC9434" stroke-width="0.376003" stroke-linejoin="round"/>
<path d="M60.9601 44.0299L58.9928 45.9986" stroke="#BC9434" stroke-width="0.376003" stroke-linejoin="round"/>
<path d="M58.9928 16.9824L60.9601 18.9497" stroke="#BC9434" stroke-width="0.376003" stroke-linejoin="round"/>
<path d="M86.0404 44.0299L88.009 45.9986" stroke="#BC9434" stroke-width="0.376003" stroke-linejoin="round"/>
<path d="M72.2422 35.1137L71.147 34.4821L82.2947 16.0034L82.6237 16.1931L72.2422 35.1137Z" fill="#BC9434" stroke="#BC9434" stroke-width="0.376003" stroke-linejoin="round"/>
<path d="M78.0007 33.5603L77.4865 34.7153L57.9475 25.5522L58.1019 25.2053L78.0007 33.5603Z" fill="#BC9434" stroke="#BC9434" stroke-width="0.376003" stroke-linejoin="round"/>
<path d="M74.3057 31.5002C74.3057 31.341 74.2585 31.1854 74.1701 31.053C74.0816 30.9207 73.9559 30.8175 73.8089 30.7566C73.6618 30.6957 73.5 30.6798 73.3439 30.7108C73.1878 30.7419 73.0444 30.8185 72.9319 30.9311C72.8193 31.0436 72.7427 31.187 72.7116 31.3431C72.6805 31.4993 72.6965 31.6611 72.7574 31.8081C72.8183 31.9552 72.9215 32.0809 73.0538 32.1693C73.1862 32.2577 73.3417 32.3049 73.5009 32.3049C73.6066 32.3049 73.7113 32.2841 73.8089 32.2437C73.9065 32.2032 73.9953 32.144 74.07 32.0692C74.1447 31.9945 74.204 31.9058 74.2444 31.8081C74.2849 31.7105 74.3057 31.6058 74.3057 31.5002V31.5002Z" fill="white" stroke="#BC9434" stroke-width="0.376003" stroke-linejoin="round"/>
<path d="M65.7709 46.7538L64.5122 45.9284C64.5122 45.9284 63.7322 46.6837 63.6868 46.7538C63.6414 46.824 61.498 47.0799 61.073 47.0799C60.6479 47.0799 60.3438 46.9794 60.2929 47.1817C60.242 47.3839 60.8969 47.8351 61.853 48.0869C62.2299 48.1859 62.7802 48.384 63.3222 48.578L63.2369 48.7912C63.2369 48.7912 64.6704 49.3195 64.8974 49.3415C64.9744 49.3511 65.0487 49.2342 65.1134 49.0774C65.3376 48.8751 65.7709 46.7538 65.7709 46.7538Z" fill="#BC9434" stroke="#BC9434" stroke-width="0.376003" stroke-linejoin="round"/>
<path d="M87.0859 35.9876L87.3886 37.4568C87.3886 37.4568 88.474 37.4706 88.5634 37.4568C88.6529 37.4431 90.3518 38.7679 90.6504 39.0692C90.9489 39.3704 91.0961 39.6538 91.2749 39.5465C91.4538 39.4392 91.3066 38.6578 90.8058 37.8049C90.6077 37.4692 90.356 36.941 90.1097 36.4209L90.3202 36.3301C90.3202 36.3301 89.675 34.9448 89.5319 34.7674C89.4824 34.7068 89.3476 34.7371 89.1921 34.8017C88.884 34.7921 87.0859 35.9876 87.0859 35.9876Z" fill="#BC9434" stroke="#BC9434" stroke-width="0.376003" stroke-linejoin="round"/>
<path d="M72.3935 32.0573C72.3935 32.0573 71.9904 32.309 72.0413 32.4603C72.0922 32.6117 72.4183 32.862 72.4183 32.862C72.4183 32.862 67.0998 37.4472 66.9994 37.7994C66.899 38.1516 63.684 45.9229 63.684 45.9229L66.1492 47.161L69.4399 39.3388L75.0348 35.762C75.0348 35.762 79.0794 41.5152 79.4825 41.4656C79.8855 41.4161 88.1603 37.5614 88.1603 37.5614L87.3528 35.6685L80.3615 38.0622L78.1783 33.1647C78.1783 33.1647 78.7066 32.2581 78.3805 31.3763C78.0545 30.4945 77.097 29.1367 77.097 29.1367L72.3935 32.0573Z" fill="#BC9434" stroke="#BC9434" stroke-width="0.376003" stroke-linejoin="round"/>
<path d="M71.9891 31.6047L72.3922 32.0573L77.097 29.138L76.7944 28.8368L71.9891 31.6047Z" fill="#BC9434" stroke="#BC9434" stroke-width="0.376003" stroke-linejoin="round"/>
<path d="M78.8331 25.7772L79.2651 26.3591L80.3216 25.9932L80.1056 25.4745L78.8331 25.7772Z" fill="white" stroke="#BC9434" stroke-width="0.376003" stroke-linejoin="round"/>
<path d="M72.1052 21.5961L76.0431 27.8416C76.1967 28.0852 76.5822 28.1181 76.9042 27.9151L81.8681 24.7852C82.19 24.5822 82.3265 24.2202 82.173 23.9766L78.235 17.7311C78.0814 17.4875 77.6959 17.4546 77.3739 17.6576L72.4101 20.7875C72.0881 20.9905 71.9516 21.3525 72.1052 21.5961Z" fill="#BC9434" stroke="#BC9434" stroke-width="0.376003" stroke-linejoin="round"/>
<path d="M67.7162 21.5346C67.7162 21.5346 65.6237 21.5649 64.5521 21.5346C63.4804 21.5043 60.4855 20.9073 60.2461 21.3558C60.0068 21.8042 60.5144 23.03 61.9809 23.5087C63.4474 23.9875 66.6459 24.4359 66.6459 24.4359C66.6459 24.4359 67.961 26.0868 68.7094 27.0677C69.4578 28.0485 70.8321 30.3281 70.9518 30.5372C71.0715 30.7463 71.6094 32.0325 72.3275 31.7629C73.0456 31.4933 76.9622 29.072 76.9622 28.8918C76.9622 28.7116 76.9622 28.4791 76.8439 28.3237C76.7256 28.1682 75.3182 26.4403 75.0789 25.985C74.8395 25.5296 73.9783 23.3244 73.9783 23.3244L75.8616 22.8759C75.8616 22.8759 78.0751 25.3274 78.4933 25.7167C78.9116 26.106 79.2706 25.9561 79.2706 25.9561C79.2706 25.9561 80.2584 25.7759 80.2873 25.4773C80.3161 25.1788 76.998 20.0943 76.6692 19.9154C76.3404 19.7366 74.1269 20.4836 73.2299 20.6322C72.333 20.7807 71.2558 20.8413 69.9998 21.1412C69.248 21.3222 68.4852 21.4537 67.7162 21.5346V21.5346Z" fill="white" stroke="#BC9434" stroke-width="0.376003" stroke-linejoin="round"/>
<path d="M73.9631 23.3298L70.9724 24.1662" stroke="#BC9434" stroke-width="0.376003" stroke-linejoin="round"/>
<path d="M72.6164 23.7178L71.5709 24.5556" stroke="#BC9434" stroke-width="0.376003" stroke-linejoin="round"/>
<path d="M64.0953 23.2666L63.6455 23.0602" stroke="#BC9434" stroke-width="0.376003" stroke-linejoin="round"/>
<path d="M64.5424 23.0011L66.6363 24.4359L64.4214 23.4179" stroke="#BC9434" stroke-width="0.376003" stroke-linejoin="round"/>
<path d="M71.674 27.6179C72.7264 27.8366 74.563 28.1585 76.112 28.1241" stroke="#BC9434" stroke-width="0.376003" stroke-linejoin="round"/>
<path d="M70.8115 27.4225C70.8115 27.4225 70.9917 27.4679 71.2985 27.5367" stroke="#BC9434" stroke-width="0.376003" stroke-linejoin="round"/>
<path d="M74.0595 27.6894C74.0595 27.6894 75.3059 27.948 76.1382 27.948" stroke="#BC9434" stroke-width="0.376003" stroke-linejoin="round"/>
<path d="M67.6776 23.1139L68.1302 24.6285L68.719 23.0685L67.6776 23.1139Z" fill="#BC9434" stroke="#BC9434" stroke-width="0.376003" stroke-linejoin="round"/>
<path d="M67.8138 21.972L67.2168 22.6296L68.2458 23.4537L68.8222 22.4246L67.8138 21.972Z" fill="white" stroke="#BC9434" stroke-width="0.376003" stroke-linejoin="round"/>
<path d="M67.2168 22.6296L67.5057 23.8443L67.917 23.1854L67.2168 22.6296Z" fill="white" stroke="#BC9434" stroke-width="0.376003" stroke-linejoin="round"/>
<path d="M65.3032 17.3208C65.3032 17.3208 64.8905 18.3292 64.9125 18.5961C64.9345 18.863 65.1395 19.028 65.1188 19.3376C65.0982 19.6471 64.4599 20.2221 64.6043 20.3666C64.7488 20.511 65.2825 20.7367 65.2825 20.7367C65.2825 20.7367 65.859 21.9308 66.0653 21.9748C66.2717 22.0188 67.3819 21.4603 67.3819 21.4603L68.2458 23.455L69.9544 20.9251L69.378 19.7929C69.378 19.7929 69.8719 18.5177 69.3986 17.468C68.9254 16.4183 67.4231 16.3564 66.7023 16.4803C65.9814 16.6041 65.4476 16.9095 65.3032 17.3208Z" fill="white" stroke="#BC9434" stroke-width="0.376003" stroke-miterlimit="10"/>
<path d="M66.683 17.0966C66.5157 17.061 66.3426 17.063 66.1761 17.1022C66.0096 17.1415 65.8539 17.217 65.72 17.3236C65.2069 17.6936 64.7735 18.105 64.5686 17.7363C64.3636 17.3676 65.0005 16.7485 65.0005 16.7485C65.0005 16.7485 64.486 16.6041 64.6924 16.0084C64.8987 15.4127 65.6554 15.2875 65.6554 15.4939C65.6554 15.7002 65.5935 15.8639 66.1699 15.5764C66.7463 15.2889 67.0545 15.205 67.1783 15.5352C67.3021 15.8653 68.0422 15.6727 68.8855 16.1515C69.7288 16.6302 69.9352 16.9342 69.7494 18.0045C69.5637 19.0748 69.5238 19.588 69.3794 19.7929C69.2349 19.9979 68.7204 20.0598 68.4948 19.9787C68.2692 19.8975 68.3916 19.6691 68.3916 19.6691C68.3916 19.6691 68.9887 19.0721 68.7204 18.5988C68.4522 18.1256 68.0628 18.3319 67.939 18.5988C67.8152 18.8657 67.8771 19.0927 67.6914 19.0927C67.5057 19.0927 67.342 18.9551 67.3007 18.6607C67.2594 18.3663 67.1164 18.1105 66.9925 18.0637C66.8687 18.0169 66.5606 18.2907 66.5798 17.8174C66.587 17.5445 66.6886 17.2824 66.8674 17.0759L66.683 17.0966Z" fill="#BC9434" stroke="#BC9434" stroke-width="0.376003" stroke-miterlimit="10"/>
<path d="M65.3045 19.1312C65.2992 19.0001 65.3422 18.8717 65.4254 18.7702C65.5086 18.6688 65.6262 18.6014 65.7557 18.5809" stroke="#BC9434" stroke-width="0.376003" stroke-miterlimit="10"/>
<path d="M65.7902 19.3348C65.8301 19.4462 65.8177 19.5535 65.7641 19.5728C65.7104 19.592 65.6361 19.515 65.5962 19.4022C65.5563 19.2894 65.5687 19.1835 65.6224 19.1642C65.676 19.1449 65.7517 19.222 65.7902 19.3348Z" fill="#BC9434"/>
<path d="M69.9131 20.2635L68.1234 22.5471L68.4521 23.7618L70.5515 20.8399L69.9131 20.2635Z" fill="white" stroke="#BC9434" stroke-width="0.376003" stroke-linejoin="round"/>
<path d="M62.5697 22.924C62.7554 23.118 62.7829 23.3931 62.6302 23.5417C62.4775 23.6903 62.201 23.6531 62.0153 23.4606C61.8296 23.268 61.802 22.9914 61.9547 22.8429C62.1074 22.6943 62.3826 22.7369 62.5697 22.924Z" fill="white" stroke="#BC9434" stroke-width="0.376003" stroke-linejoin="round"/>
<path d="M62.4225 23.2996L62.1239 22.9832C62.1239 22.9832 61.5104 21.3846 60.6918 20.9568C59.8733 20.5289 58.8883 21.1797 58.6833 21.7932C58.4783 22.4068 59.2047 23.4303 59.9669 23.7467C60.5789 23.9759 61.207 24.1599 61.846 24.297C61.846 24.297 62.1996 23.4674 62.4225 23.2996Z" fill="white" stroke="#BC9434" stroke-width="0.376003" stroke-linejoin="round"/>
<path d="M61.3619 24.1553L61.3935 24.1966C61.6618 24.264 61.8461 24.3039 61.8461 24.3039C61.8461 24.3039 62.1996 23.4675 62.4225 23.2996L62.124 22.9832C62.124 22.9832 61.2683 23.1318 61.3619 24.1553Z" fill="#BC9434" stroke="#BC9434" stroke-width="0.376003" stroke-linejoin="round"/>
<path d="M64.3003 25.773C64.4087 25.9288 64.5337 26.0722 64.6731 26.2009C64.8217 26.3137 64.8767 26.443 64.691 26.4251C64.4662 26.4197 64.2526 26.3258 64.0967 26.1637C63.9096 25.9601 63.7803 25.7923 63.7803 25.7923L64.3003 25.773Z" fill="white" stroke="#BC9434" stroke-width="0.376003" stroke-linejoin="round"/>
<path d="M64.3939 25.2131C64.3939 25.2131 64.6539 25.641 64.5617 25.7524C64.4695 25.8638 63.6125 25.901 63.4818 25.8638C63.3511 25.8267 63.4446 25.6589 63.4446 25.6589L64.3939 25.2131Z" fill="white" stroke="#BC9434" stroke-width="0.376003" stroke-linejoin="round"/>
<path d="M64.3746 24.7138C64.3746 24.7138 64.5796 25.0302 64.5424 25.1595C64.5053 25.2888 63.6317 25.6809 63.4419 25.6616C63.252 25.6424 63.2754 25.4952 63.2754 25.4952L64.3746 24.7138Z" fill="white" stroke="#BC9434" stroke-width="0.376003" stroke-linejoin="round"/>
<path d="M64.0224 24.341C64.0224 24.341 64.3567 24.3038 64.3939 24.546C64.431 24.7881 64.226 24.8624 64.0967 24.9738C63.9674 25.0852 63.4089 25.4952 63.2782 25.4952C63.1475 25.4952 62.9054 25.1224 62.9054 25.1224L64.0224 24.341Z" fill="white" stroke="#BC9434" stroke-width="0.376003" stroke-linejoin="round"/>
<path d="M62.4225 23.2996C62.4225 23.2996 63.3332 23.6353 63.7611 23.7467C64.1889 23.8581 64.2082 24.2117 64.0224 24.341C63.8367 24.4703 63.2589 25.1788 63.0911 25.2159C62.9233 25.2531 62.6784 25.0674 62.6784 25.0674C62.6784 25.0674 62.157 24.806 62.0827 24.6024C62.0374 24.4791 61.9528 24.3743 61.842 24.3038C61.842 24.3038 61.7897 23.5417 62.4225 23.2996Z" fill="white" stroke="#BC9434" stroke-width="0.376003" stroke-linejoin="round"/>
<path d="M62.6825 25.0673C62.6825 25.0673 62.5339 24.7138 62.6646 24.6202C62.7953 24.5267 62.9989 24.7317 62.9989 24.7317C63.0286 24.6239 63.0791 24.5229 63.1475 24.4345" stroke="#BC9434" stroke-width="0.376003" stroke-linejoin="round"/>
<path d="M79.272 26.3591C79.3212 26.6259 79.352 26.8957 79.3641 27.1667C79.349 27.3552 79.0202 28.1393 79.0037 28.1861C78.9872 28.2328 79.1138 28.4213 79.1605 28.4832C79.2073 28.5451 79.4274 28.5149 79.5994 28.6552C79.7713 28.7955 79.9749 29.1422 80.2267 29.0679C80.4784 28.9936 80.6394 28.6552 80.6394 28.6552C80.6394 28.6552 81.2186 28.3113 81.2337 28.1393C81.2416 27.9273 81.2151 27.7155 81.1553 27.512C81.1085 27.3744 80.3299 25.9987 80.3299 25.9987L79.272 26.3591Z" fill="white" stroke="#BC9434" stroke-width="0.376003" stroke-linejoin="round"/>
<path d="M79.4357 28.0444C79.4357 28.0444 79.7328 28.0911 79.8594 28.5465" stroke="#BC9434" stroke-width="0.376003" stroke-linejoin="round"/>
</svg>
